<svg width="80" height="80" viewBox="0 0 80 80" fill="none" xmlns="http://www.w3.org/2000/svg">
<path d="M40.5667 4.23989C39.9277 4.25211 39.319 4.51457 38.8714 4.97084C38.4239 5.42711 38.1732 6.04076 38.1734 6.67989V53.0599C38.1734 53.707 38.4304 54.3276 38.888 54.7852C39.3456 55.2428 39.9662 55.4999 40.6134 55.4999C41.2605 55.4999 41.8811 55.2428 42.3387 54.7852C42.7963 54.3276 43.0534 53.707 43.0534 53.0599V6.67989C43.0534 6.35578 42.9889 6.03492 42.8636 5.73602C42.7382 5.43713 42.5546 5.16619 42.3234 4.93904C42.0923 4.71189 41.8181 4.53308 41.5171 4.41303C41.216 4.29299 40.8941 4.23413 40.57 4.23989H40.5667ZM77.4867 18.1332C77.1682 18.1424 76.8545 18.2138 76.5634 18.3432L55.6234 27.6899C55.1949 27.8834 54.8315 28.1964 54.5765 28.5914C54.3215 28.9863 54.1859 29.4465 54.1859 29.9166C54.1859 30.3867 54.3215 30.8468 54.5765 31.2417C54.8315 31.6367 55.1949 31.9497 55.6234 32.1432L76.5634 41.5199C76.8778 41.6614 77.2185 41.7352 77.5634 41.7365C78.1212 41.7348 78.6616 41.5419 79.0945 41.1901C79.5275 40.8382 79.8267 40.3486 79.9425 39.8029C80.0583 39.2572 79.9835 38.6883 79.7308 38.191C79.478 37.6937 79.0624 37.298 78.5534 37.0699L62.6 29.9199L78.5534 22.7966C79.1424 22.5313 79.6026 22.044 79.8336 21.4407C80.0647 20.8375 80.0478 20.1674 79.7867 19.5766C79.5887 19.1357 79.2646 18.7634 78.8553 18.5065C78.446 18.2497 77.9697 18.1198 77.4867 18.1332ZM2.48669 34.9066C2.11059 34.8997 1.73801 34.98 1.39805 35.141C1.05809 35.302 0.759964 35.5394 0.526952 35.8347C0.293941 36.13 0.132359 36.4752 0.0548299 36.8432C-0.0226993 37.2113 -0.0140763 37.5924 0.0800252 37.9566C5.86669 60.2132 25.9967 75.7599 49.0234 75.7599C49.6705 75.7599 50.2911 75.5028 50.7487 75.0452C51.2063 74.5876 51.4634 73.967 51.4634 73.3199C51.4634 72.6728 51.2063 72.0521 50.7487 71.5945C50.2911 71.137 49.6705 70.8799 49.0234 70.8799C38.9126 70.8839 29.0862 67.5339 21.0835 61.3546C13.0808 55.1754 7.35389 46.5161 4.80003 36.7332C4.66575 36.2188 4.36711 35.7622 3.94953 35.4331C3.53195 35.104 3.01829 34.9202 2.48669 34.9099V34.9066Z" fill="#F95959"/>
</svg>
