<svg width="80" height="80" viewBox="0 0 80 80" fill="none" xmlns="http://www.w3.org/2000/svg">
<path d="M7.96296 0.555664H71.1111C73.3333 0.555664 75.216 1.32727 76.7593 2.87048C78.3025 4.41369 79.0741 6.23468 79.0741 8.33344V71.6668C79.0741 73.7655 78.3025 75.5865 76.7593 77.1297C75.216 78.6729 73.3333 79.4445 71.1111 79.4445H50.7407C49.8765 79.3211 49.4444 78.0248 49.4444 75.5557V64.8149C49.4444 61.4816 48.5185 59.0125 46.6667 57.4075C52.0988 56.7902 56.4506 55.1236 59.7222 52.4075C62.9938 49.6915 64.6296 44.8767 64.6296 37.9631C64.6296 33.889 63.2716 30.3705 60.5556 27.4075C61.9136 24.1976 61.7901 20.6791 60.1852 16.852C57.963 16.1112 54.3827 17.4692 49.4444 20.926C46.2346 20.0618 42.9012 19.6297 39.4444 19.6297C35.9877 19.6297 32.716 20.0618 29.6296 20.926C27.4074 19.4446 25.4012 18.3643 23.6111 17.6853C21.821 17.0063 20.5556 16.7285 19.8148 16.852H18.7037C17.2222 20.6791 17.0988 24.1976 18.3333 27.4075C15.6173 30.3705 14.2593 33.889 14.2593 37.9631C14.2593 44.7532 15.9259 49.5371 19.2593 52.3149C22.5926 55.0927 26.9136 56.7902 32.2222 57.4075C30.8642 58.6421 30.0617 60.4322 29.8148 62.7779C24.6296 65.0001 20.8025 63.889 18.3333 59.4445C16.8519 56.9754 14.8148 55.6174 12.2222 55.3705C11.9753 55.3705 11.6975 55.4013 11.3889 55.4631C11.0802 55.5248 10.7407 55.7408 10.3704 56.1112C10 56.4816 10.4938 57.0371 11.8519 57.7779C13.7037 58.6421 15.1852 60.5557 16.2963 63.5186C16.4198 63.7655 16.5432 64.0433 16.6667 64.352C16.7901 64.6606 17.1914 65.247 17.8704 66.1112C18.5494 66.9754 19.3519 67.6236 20.2778 68.0557C21.2037 68.4878 22.4691 68.889 24.0741 69.2594C25.679 69.6297 27.5309 69.5063 29.6296 68.889V75.5557C29.6296 78.0248 29.1358 79.3211 28.1481 79.4445H7.96296C5.74074 79.4445 3.85802 78.6729 2.31481 77.1297C0.771605 75.5865 0 73.7655 0 71.6668V8.33344C0 6.23468 0.771605 4.41369 2.31481 2.87048C3.85802 1.32727 5.74074 0.555664 7.96296 0.555664Z" fill="#F95959"/>
</svg>
