<svg width="80" height="80" viewBox="0 0 80 80" fill="none" xmlns="http://www.w3.org/2000/svg">
<g clip-path="url(#clip0_16_252)">
<path d="M68.15 68.1775H56.3175V49.61C56.3175 45.1825 56.225 39.4925 50.13 39.4925C43.96 39.4925 43.02 44.295 43.02 49.2825V68.175H31.1725V29.9975H42.5525V35.205H42.705C44.295 32.1975 48.1625 29.035 53.9325 29.035C65.935 29.035 68.1625 36.9375 68.1625 47.2125V68.175L68.15 68.1775ZM17.7875 24.78C16.8832 24.7803 15.9877 24.6023 15.1523 24.256C14.3169 23.9097 13.5581 23.402 12.9192 22.7619C12.2803 22.1219 11.774 21.3621 11.4293 20.5261C11.0845 19.6901 10.908 18.7943 10.91 17.89C10.9115 16.5289 11.3165 15.1988 12.0739 14.0678C12.8313 12.9369 13.907 12.0559 15.165 11.5363C16.4231 11.0167 17.8069 10.8817 19.1416 11.1485C20.4764 11.4153 21.702 12.0719 22.6636 13.0353C23.6252 13.9986 24.2795 15.2254 24.5439 16.5606C24.8083 17.8958 24.6709 19.2794 24.1489 20.5365C23.627 21.7936 22.7441 22.8677 21.6118 23.623C20.4795 24.3784 19.1486 24.781 17.7875 24.78ZM23.7225 68.1775H11.85V30H23.7225V68.1775ZM74.09 0H5.9C2.6425 0 0 2.5775 0 5.7675V74.235C0 77.425 2.6425 80.0025 5.9 80.0025H74.0775C77.33 80.0025 80 77.425 80 74.235V5.7675C80 2.5775 77.33 0 74.0775 0H74.09Z" fill="#F95959"/>
</g>
<defs>
<clipPath id="clip0_16_252">
<rect width="80" height="80" fill="white"/>
</clipPath>
</defs>
</svg>
