<svg width="1029" height="7" viewBox="0 0 1029 7" fill="none" xmlns="http://www.w3.org/2000/svg">
<path d="M0.928 6.128V0.815998H20.704V6.128H0.928ZM48.928 6.128V0.815998H68.704V6.128H48.928ZM96.928 6.128V0.815998H116.704V6.128H96.928ZM144.928 6.128V0.815998H164.704V6.128H144.928ZM192.928 6.128V0.815998H212.704V6.128H192.928ZM240.928 6.128V0.815998L260.704 0.815998V6.128L240.928 6.128ZM288.928 6.128V0.815998H308.704V6.128H288.928ZM336.928 6.128V0.815998H356.704V6.128H336.928ZM384.928 6.128V0.815998H404.704V6.128H384.928ZM432.928 6.128V0.815998H452.704V6.128H432.928ZM480.928 6.128V0.815998H500.704V6.128H480.928ZM528.928 6.128V0.815998H548.704V6.128H528.928ZM576.928 6.128V0.815998H596.704V6.128H576.928ZM624.928 6.128V0.815998H644.704V6.128H624.928ZM672.928 6.128V0.815998H692.704V6.128H672.928ZM720.928 6.128V0.815998H740.704V6.128H720.928ZM768.928 6.128V0.815998H788.704V6.128H768.928ZM816.928 6.128V0.815998H836.704V6.128H816.928ZM864.928 6.128V0.815998H884.704V6.128H864.928ZM912.928 6.128V0.815998H932.704V6.128H912.928ZM960.928 6.128V0.815998H980.704V6.128H960.928ZM1008.93 6.128V0.815998H1028.7V6.128H1008.93Z" fill="#FAF7F2"/>
</svg>
