<svg width="1029" height="6" viewBox="0 0 1029 6" fill="none" xmlns="http://www.w3.org/2000/svg">
<path d="M0.395713 5.40205V0.0900459H20.1717V5.40205H0.395713ZM48.3957 5.40205V0.0900459H68.1717V5.40205H48.3957ZM96.3957 5.40205V0.0900459H116.172V5.40205H96.3957ZM144.396 5.40205V0.0900459H164.172V5.40205H144.396ZM192.396 5.40205V0.0900459H212.172V5.40205H192.396ZM240.396 5.40205V0.0900459L260.172 0.0900459V5.40205L240.396 5.40205ZM288.396 5.40205V0.0900459H308.172V5.40205H288.396ZM336.396 5.40205V0.0900459H356.172V5.40205H336.396ZM384.396 5.40205V0.0900459H404.172V5.40205H384.396ZM432.396 5.40205V0.0900459H452.172V5.40205H432.396ZM480.396 5.40205V0.0900459H500.172V5.40205H480.396ZM528.396 5.40205V0.0900459H548.172V5.40205H528.396ZM576.396 5.40205V0.0900459H596.172V5.40205H576.396ZM624.396 5.40205V0.0900459H644.172V5.40205H624.396ZM672.396 5.40205V0.0900459H692.172V5.40205H672.396ZM720.396 5.40205V0.0900459H740.172V5.40205H720.396ZM768.396 5.40205V0.0900459H788.172V5.40205H768.396ZM816.396 5.40205V0.0900459H836.172V5.40205H816.396ZM864.396 5.40205V0.0900459H884.172V5.40205H864.396ZM912.396 5.40205V0.0900459H932.172V5.40205H912.396ZM960.396 5.40205V0.0900459H980.172V5.40205H960.396ZM1008.4 5.40205V0.0900459H1028.17V5.40205H1008.4Z" fill="#F95959"/>
</svg>
