<svg width="1893" height="7" viewBox="0 0 1893 7" fill="none" xmlns="http://www.w3.org/2000/svg">
<path d="M0.928 6.12803V0.816029H20.704V6.12803H0.928ZM48.928 6.12803V0.816029H68.704V6.12803H48.928ZM96.928 6.12803V0.816029H116.704V6.12803H96.928ZM144.928 6.12803V0.816029H164.704V6.12803H144.928ZM192.928 6.12803V0.816029H212.704V6.12803H192.928ZM240.928 6.12803V0.816029H260.704V6.12803H240.928ZM288.928 6.12803V0.816029H308.704V6.12803H288.928ZM336.928 6.12803V0.816029H356.704V6.12803H336.928ZM384.928 6.12803V0.816029H404.704V6.12803H384.928ZM432.928 6.12803V0.816029H452.704V6.12803H432.928ZM480.928 6.12803V0.816029H500.704V6.12803H480.928ZM528.928 6.12803V0.816029H548.704V6.12803H528.928ZM576.928 6.12803V0.816029H596.704V6.12803H576.928ZM624.928 6.12803V0.816029H644.704V6.12803H624.928ZM672.928 6.12803V0.816029H692.704V6.12803H672.928ZM720.928 6.12803V0.816029H740.704V6.12803H720.928ZM768.928 6.12803V0.816029H788.704V6.12803H768.928ZM816.928 6.12803V0.816029H836.704V6.12803H816.928ZM864.928 6.12803V0.816029H884.704V6.12803H864.928ZM912.928 6.12803V0.816029H932.704V6.12803H912.928ZM960.928 6.12803V0.816029H980.704V6.12803H960.928ZM1008.93 6.12803V0.816029L1028.7 0.816029V6.12803L1008.93 6.12803ZM1056.93 6.12803V0.816029H1076.7V6.12803H1056.93ZM1104.93 6.12803V0.816029H1124.7V6.12803H1104.93ZM1152.93 6.12803V0.816029H1172.7V6.12803H1152.93ZM1200.93 6.12803V0.816029H1220.7V6.12803H1200.93ZM1248.93 6.12803V0.816029H1268.7V6.12803H1248.93ZM1296.93 6.12803V0.816029H1316.7V6.12803H1296.93ZM1344.93 6.12803V0.816029H1364.7V6.12803H1344.93ZM1392.93 6.12803V0.816029H1412.7V6.12803H1392.93ZM1440.93 6.12803V0.816029H1460.7V6.12803H1440.93ZM1488.93 6.12803V0.816029H1508.7V6.12803H1488.93ZM1536.93 6.12803V0.816029H1556.7V6.12803H1536.93ZM1584.93 6.12803V0.816029H1604.7V6.12803H1584.93ZM1632.93 6.12803V0.816029H1652.7V6.12803H1632.93ZM1680.93 6.12803V0.816029H1700.7V6.12803H1680.93ZM1728.93 6.12803V0.816029H1748.7V6.12803H1728.93ZM1776.93 6.12803V0.816029H1796.7V6.12803H1776.93ZM1824.93 6.12803V0.816029H1844.7V6.12803H1824.93ZM1872.93 6.12803V0.816029H1892.7V6.12803H1872.93Z" fill="#FAF7F2"/>
</svg>
