<svg width="1440" height="6" viewBox="0 0 1440 6" fill="none" xmlns="http://www.w3.org/2000/svg">
<path d="M-101.075 5.80677V0.49477H-81.2993V5.80677H-101.075ZM-53.0753 5.80677V0.49477L-33.2993 0.49477V5.80677L-53.0753 5.80677ZM-5.0753 5.80677V0.49477H14.7007V5.80677H-5.0753ZM42.9247 5.80677V0.49477H62.7007V5.80677H42.9247ZM90.9247 5.80677V0.49477H110.701V5.80677H90.9247ZM138.925 5.80677V0.49477H158.701V5.80677H138.925ZM186.925 5.80677V0.49477H206.701V5.80677H186.925ZM234.925 5.80677V0.49477H254.701V5.80677H234.925ZM282.925 5.80677V0.49477H302.701V5.80677H282.925ZM330.925 5.80677V0.49477L350.701 0.49477V5.80677L330.925 5.80677ZM378.925 5.80677V0.49477H398.701V5.80677H378.925ZM426.925 5.80677V0.49477H446.701V5.80677H426.925ZM474.925 5.80677V0.49477H494.701V5.80677H474.925ZM522.925 5.80677V0.49477H542.701V5.80677H522.925ZM570.925 5.80677V0.49477H590.701V5.80677H570.925ZM618.925 5.80677V0.49477H638.701V5.80677H618.925ZM666.925 5.80677V0.49477H686.701V5.80677H666.925ZM714.925 5.80677V0.49477L734.701 0.49477V5.80677L714.925 5.80677ZM762.925 5.80677V0.49477H782.701V5.80677H762.925ZM810.925 5.80677V0.49477H830.701V5.80677H810.925ZM858.925 5.80677V0.49477H878.701V5.80677H858.925ZM906.925 5.80677V0.49477H926.701V5.80677H906.925ZM954.925 5.80677V0.49477H974.701V5.80677H954.925ZM1002.92 5.80677V0.49477H1022.7V5.80677H1002.92ZM1050.92 5.80677V0.49477H1070.7V5.80677H1050.92ZM1098.92 5.80677V0.49477L1118.7 0.49477V5.80677L1098.92 5.80677ZM1146.92 5.80677V0.49477H1166.7V5.80677H1146.92ZM1194.92 5.80677V0.49477H1214.7V5.80677H1194.92ZM1242.92 5.80677V0.49477H1262.7V5.80677H1242.92ZM1290.92 5.80677V0.49477H1310.7V5.80677H1290.92ZM1338.92 5.80677V0.49477H1358.7V5.80677H1338.92ZM1386.92 5.80677V0.49477H1406.7V5.80677H1386.92ZM1434.92 5.80677V0.49477H1454.7V5.80677H1434.92ZM1482.92 5.80677V0.49477L1502.7 0.49477V5.80677L1482.92 5.80677ZM1530.92 5.80677V0.49477H1550.7V5.80677H1530.92ZM1578.92 5.80677V0.49477H1598.7V5.80677H1578.92ZM1626.92 5.80677V0.49477H1646.7V5.80677H1626.92ZM1674.92 5.80677V0.49477H1694.7V5.80677H1674.92ZM1722.92 5.80677V0.49477H1742.7V5.80677H1722.92ZM1770.92 5.80677V0.49477H1790.7V5.80677H1770.92ZM1818.92 5.80677V0.49477H1838.7V5.80677H1818.92Z" fill="#161C2E"/>
</svg>
